HIERARCHY
ROOT Hips
{
	OFFSET -3.958830 18.904000 13.208200
	CHANNELS 6 Xposition Yposition Zposition Zrotation Yrotation Xrotation 
	JOINT LHipJoint
	{
		OFFSET 0.000000 0.000000 0.000000
		CHANNELS 3 Zrotation Yrotation Xrotation
		JOINT LeftUpLeg
		{
			OFFSET 1.800000 -1.400000 0.085000
			CHANNELS 3 Zrotation Yrotation Xrotation
			JOINT LeftLeg
			{
				OFFSET 2.215000 -6.000000 0.000000
				CHANNELS 3 Zrotation Yrotation Xrotation
				JOINT LeftFoot
				{
					OFFSET 2.500000 -6.900000 0.000000
					CHANNELS 3 Zrotation Yrotation Xrotation
					JOINT LeftToeBase
					{
						OFFSET 0.200000 -0.500000 1.950000
						CHANNELS 3 Zrotation Yrotation Xrotation
						End Site
						{
							OFFSET 0.000000 0.000000 0.000000
						}
					}
				}
			}
		}
	}
	JOINT RHipJoint
	{
		OFFSET 0.000000 0.000000 0.000000
		CHANNELS 3 Zrotation Yrotation Xrotation
		JOINT RightUpLeg
		{
			OFFSET -1.800000 -1.400000 0.085000
			CHANNELS 3 Zrotation Yrotation Xrotation
			JOINT RightLeg
			{
				OFFSET -2.215000 -6.000000 0.000000
				CHANNELS 3 Zrotation Yrotation Xrotation
				JOINT RightFoot
				{
					OFFSET -2.500000 -6.900000 0.000000
					CHANNELS 3 Zrotation Yrotation Xrotation
					JOINT RightToeBase
					{
						OFFSET -0.200000 -0.500000 1.950000
						CHANNELS 3 Zrotation Yrotation Xrotation
						End Site
						{
							OFFSET 0.000000 0.000000 0.000000
						}
					}
				}
			}
		}
	}
	JOINT LowerBack
	{
		OFFSET 0.000000 0.000000 0.000000
		CHANNELS 3 Zrotation Yrotation Xrotation
		JOINT Spine
		{
			OFFSET -0.087000 1.940000 -0.288900
			CHANNELS 3 Zrotation Yrotation Xrotation
			JOINT Spine1
			{
				OFFSET 0.000000 1.950000 0.060000
				CHANNELS 3 Zrotation Yrotation Xrotation
				JOINT Neck
				{
					OFFSET 0.000000 0.000000 0.000000
					CHANNELS 3 Zrotation Yrotation Xrotation
					JOINT Neck1
					{
						OFFSET 0.000000 1.600000 0.340000
						CHANNELS 3 Zrotation Yrotation Xrotation
						JOINT Head
						{
							OFFSET 0.000000 1.667000 -0.240000
							CHANNELS 3 Zrotation Yrotation Xrotation
							End Site
							{
								OFFSET 0.000000 0.000000 0.000000
							}
						}
					}
				}
				JOINT LeftShoulder
				{
					OFFSET 0.000000 0.000000 0.000000
					CHANNELS 3 Zrotation Yrotation Xrotation
					JOINT LeftArm
					{
						OFFSET 2.700000 1.550000 -0.730000
						CHANNELS 3 Zrotation Yrotation Xrotation
						JOINT LeftForeArm
						{
							OFFSET 5.450000 0.000000 0.000000
							CHANNELS 3 Zrotation Yrotation Xrotation
							JOINT LeftHand
							{
								OFFSET 3.450000 0.000000 0.000000
								CHANNELS 3 Zrotation Yrotation Xrotation
								JOINT LeftHandIndex1
								{
									OFFSET 0.750000 0.000000 0.000000
									CHANNELS 3 Zrotation Yrotation Xrotation
									End Site
									{
										OFFSET 0.000000 0.000000 0.000000
									}
								}
							}
						}
					}
				}
				JOINT RightShoulder
				{
					OFFSET 0.000000 0.000000 0.000000
					CHANNELS 3 Zrotation Yrotation Xrotation
					JOINT RightArm
					{
						OFFSET -2.700000 1.550000 -0.730000
						CHANNELS 3 Zrotation Yrotation Xrotation
						JOINT RightForeArm
						{
							OFFSET -5.450000 0.000000 0.000000
							CHANNELS 3 Zrotation Yrotation Xrotation
							JOINT RightHand
							{
								OFFSET -3.450000 0.000000 0.000000
								CHANNELS 3 Zrotation Yrotation Xrotation
								JOINT RightHandIndex1
								{
									OFFSET -0.750000 0.000000 0.000000
									CHANNELS 3 Zrotation Yrotation Xrotation
									End Site
									{
										OFFSET 0.000000 0.000000 0.000000
									}
								}
							}
						}
					}
				}
			}
		}
	}
}
MOTION
Frames: 8
Frame Time: 0.016667
1.091570 16.888360 -3.480210 0.165754 17.112348 -2.870754 -14.509150 12.066799 2.535337 7.686515 -0.318526 -9.382761 -9.032841 5.254619 6.929769 -0.637413 4.051483 3.342476 -0.138450 -0.324180 -0.452090 18.785049 -12.021006 2.968117 -22.510395 1.235645 -0.222302 1.068821 -4.819715 2.986809 -0.447014 -5.021844 2.818050 -0.050700 0.613460 0.084890 -5.747763 2.154073 -7.674697 20.516223 2.210455 6.767076 -9.319122 3.232070 21.114223 7.208901 -5.016691 -16.807642 -9.122037 -1.322617 49.806915 2.172010 -11.995940 -8.311770 -21.205921 -23.541291 10.544259 -62.330790 -7.814205 -7.836794 6.199152 -34.522007 -5.908118 -3.631423 2.683895 0.573700 0.137280 -0.149080 0.223510 8.969349 31.956845 15.373347 37.722624 32.501289 -6.024051 -99.794648 66.828163 -79.211475 1.896441 1.234789 -0.442120 0.587540 0.435550 0.025670 
1.074940 16.891320 -3.476120 0.192543 16.912728 -2.875948 -14.521693 12.134719 2.524253 7.551877 -0.344257 -9.761006 -8.497265 5.225797 7.515378 -0.637807 3.973023 3.357326 -0.126380 -0.308980 -0.433180 18.759182 -12.035118 2.989222 -22.152350 1.290414 -0.126926 0.763508 -4.733071 2.855866 -0.455542 -4.986950 2.829224 -0.053290 0.584910 0.089570 -5.695614 2.100617 -7.682166 20.357108 2.413937 6.980676 -9.131175 3.453744 20.580939 7.364091 -4.915253 -16.824035 -8.946155 -1.217846 50.147478 1.495250 -11.441500 -8.049750 -21.771407 -23.237088 10.619694 -62.251389 -6.927692 -8.263659 5.908120 -34.589113 -5.835546 -3.611134 2.696027 0.576840 0.126440 -0.130720 0.221700 9.163627 31.743063 15.055646 36.993221 31.292474 -6.898674 -97.133844 67.743021 -76.166328 1.785185 1.393238 -0.426790 0.565090 0.418250 0.021060 
1.035750 16.889660 -3.477950 0.346061 18.106832 -2.757202 -14.567009 12.229083 2.559201 7.379862 -0.420844 -10.258042 -8.011596 5.071837 7.442156 -0.620577 3.838980 3.391855 -0.110460 -0.292440 -0.409540 18.703161 -12.021230 2.980013 -21.365097 1.272215 0.435703 0.135056 -4.609952 2.852664 -0.473360 -4.928617 2.860214 -0.065480 0.536990 0.073040 -5.600672 1.907912 -7.714720 20.079755 2.545649 7.150629 -8.898897 3.661533 19.835113 7.461724 -4.896237 -17.188544 -9.247381 -1.183390 51.428009 1.687890 -11.585290 -7.700840 -21.618749 -23.011962 10.560613 -62.958430 -6.302811 -8.273719 5.462957 -32.555974 -5.461474 -3.568780 2.700394 0.590100 0.088210 -0.105070 0.222130 8.719989 31.611139 15.147504 35.905114 28.530049 -8.433921 -96.957818 67.071139 -75.565666 1.801437 1.276266 -0.408310 0.540020 0.385630 0.018540 
1.008800 16.885630 -3.476640 0.363916 18.959476 -2.633845 -14.600673 12.319435 2.583945 7.300032 -0.455032 -10.519109 -7.364887 4.907454 7.383825 -0.615803 3.740742 3.417500 -0.125310 -0.319250 -0.414790 18.654801 -12.050382 2.958129 -20.549795 1.187629 0.520298 -0.008430 -4.590728 3.294091 -0.464258 -4.845375 2.888651 -0.094560 0.517060 0.064400 -5.527449 1.825369 -7.715547 20.009340 2.742243 7.420051 -8.308791 3.891933 18.530436 7.460678 -5.105385 -16.945624 -9.725174 -1.283554 52.002547 2.601470 -12.235140 -7.858230 -21.518257 -21.233649 10.220100 -64.690853 -5.291345 -9.217862 4.375491 -33.840485 -5.474653 -3.541393 2.699023 0.608940 0.058300 -0.096990 0.212400 8.529719 30.219642 14.316896 34.146651 25.310656 -10.601598 -91.990544 65.709866 -68.387126 1.664663 1.003701 -0.404430 0.524210 0.388740 0.016900 
0.972780 16.894160 -3.473030 0.261812 19.417577 -2.611805 -14.659121 12.463249 2.698976 7.675487 -0.432339 -10.512961 -7.457456 4.807902 6.538951 -0.612664 3.749546 3.403725 -0.149820 -0.376410 -0.396680 18.565960 -12.008141 2.936724 -19.653576 1.068663 0.538066 0.084673 -4.605372 3.744599 -0.457787 -4.709877 2.930298 -0.139800 0.477960 0.056040 -5.347614 1.508367 -7.818665 19.943893 2.843899 8.272952 -7.743026 4.231339 16.783739 7.720823 -5.401145 -17.228315 -10.722197 -1.336667 53.825355 2.539810 -12.683760 -8.360740 -22.859119 -20.011314 10.141065 -65.081208 -3.130606 -10.850248 2.691892 -35.900339 -5.447434 -3.492130 2.664089 0.668850 0.014300 -0.071780 0.183380 9.203844 29.610675 13.878539 31.729784 20.634266 -14.035380 -83.558187 63.852033 -57.846590 1.579957 0.552142 -0.416350 0.519620 0.405750 -0.009740 
0.928760 16.914680 -3.476830 0.160323 19.533840 -2.627843 -14.706952 12.713138 2.816487 7.884674 -0.468341 -10.854090 -7.033841 4.688975 6.218645 -0.620235 3.734214 3.403647 -0.208580 -0.472040 -0.406900 18.473747 -11.912726 2.956406 -18.538538 0.944637 0.572612 -0.054530 -4.512929 3.738927 -0.445133 -4.519506 2.999807 -0.205550 0.460400 0.032640 -5.175305 0.923972 -7.977197 20.573738 2.700165 9.559863 -8.133345 4.780702 14.515651 7.925655 -6.321167 -18.162342 -13.814527 -0.620856 57.036435 3.276640 -13.994320 -8.817040 -25.052221 -19.503884 10.000592 -64.155607 -0.956907 -11.955897 1.837795 -36.373225 -5.406700 -3.447647 2.584638 0.740020 -0.036270 -0.051350 0.148110 10.735049 30.127498 14.347705 29.789670 15.117098 -17.044940 -75.880128 59.789233 -48.013749 1.683037 0.027344 -0.444380 0.547250 0.449090 -0.027850 
0.903190 16.912440 -3.460460 -0.067845 19.560944 -2.053936 -14.730244 12.879342 2.904923 8.018956 -0.576375 -11.635455 -6.558671 4.572933 6.166499 -0.603589 3.679458 3.429893 -0.298970 -0.578700 -0.470180 18.407819 -11.899801 2.974201 -17.467896 0.887255 -0.030550 -0.054285 -4.422060 3.950587 -0.378630 -4.371502 3.080886 -0.276060 0.493620 0.021010 -5.073102 0.657697 -8.083015 20.943507 2.766313 9.613733 -8.258257 5.334364 11.788548 8.123519 -6.711248 -18.742083 -14.760834 -0.426482 58.095176 2.162910 -14.336500 -5.686150 -26.586036 -17.604915 9.774509 -64.754555 2.267258 -13.988494 1.232315 -39.322399 -5.663838 -3.450727 2.555284 0.726960 -0.012420 -0.083520 0.131240 11.540046 29.147963 14.428747 28.870758 10.439178 -17.939908 -67.809658 54.081343 -37.855510 1.779044 -0.402003 -0.461190 0.542990 0.493060 -0.021370 
0.865130 16.908920 -3.445180 -0.056052 19.645972 -1.724041 -14.815698 13.070261 3.048031 8.360922 -0.620334 -12.010212 -6.714317 4.507106 5.615256 -0.581703 3.643822 3.412380 -0.273220 -0.563810 -0.422900 18.276537 -11.800000 2.996854 -16.875223 0.823556 -0.073270 0.282363 -4.412056 3.984765 -0.401850 -4.233990 3.118861 -0.296750 0.410810 0.021880 -4.780178 0.197018 -8.247923 20.429122 2.726610 10.484285 -8.127510 5.902221 8.771496 8.572375 -6.811258 -19.241288 -15.268175 -0.184444 60.839211 1.544950 -14.123030 -6.626270 -27.047358 -14.976632 9.148030 -65.311848 5.359909 -15.798508 -1.528768 -41.659326 -5.138965 -3.371734 2.549879 0.788970 -0.075190 -0.021500 0.116450 10.862489 27.490909 14.268651 29.007475 7.034446 -17.597751 -59.820870 46.884362 -28.235126 1.865207 -0.680549 -0.438190 0.515160 0.470200 -0.045060 
